{"title":"Last Chance Harvey 2008 720p BDRip x264-pong","uid":14720985,"size":787016731,"categoryP":"video","categoryS":"movies","magnet":"?xt=urn:btih:6846d5edbfe644c7388390c23c152f9381dcec9e&amp;dn=Last+Chance+Harvey+2008+720p+BDRip+x264-pong&amp;tr=udp%3A%2F%2Ftracker.leechers-paradise.org%3A6969&amp;tr=udp%3A%2F%2Fzer0day.ch%3A1337&amp;tr=udp%3A%2F%2Fopen.demonii.com%3A1337&amp;tr=udp%3A%2F%2Ftracker.coppersurfer.tk%3A6969&amp;tr=udp%3A%2F%2Fexodus.desync.com%3A6969","seeders":0,"leechers":2,"uploader":"Pongydog","files":1,"time":1464500130,"description":"http://www.imdb.com/title/tt1046947/\r\n\r\nIn London for his daughter's wedding, a rumpled man finds his romantic spirits lifted by a new woman in his life. \r\n\r\nDirector: Joel Hopkins  \r\n\r\nWriter: Joel Hopkins  \r\n\r\nStars: Dustin Hoffman,  Emma Thompson,  Kathy Baker  | See full cast &amp; crew » \r\n\r\nGeneral\r\nComplete name                            : C:Usersuser1VideosLast Chance Harvey 2008 720p BDRip x264-pong.mp4\r\nFormat                                   : MPEG-4\r\nFormat profile                           : Base Media\r\nCodec ID                                 : isom (isom/iso2/avc1/mp41)\r\nFile size                                : 751 MiB\r\nDuration                                 : 1h 32mn\r\nOverall bit rate                         : 1 132 Kbps\r\nMovie name                               : Last.Chance.Harvey.2008.1080p.BluRay.H264.AAC-RARBG\r\nEncoded date                             : UTC 2016-05-27 04:32:57\r\nTagged date                              : UTC 2016-05-27 04:32:57\r\nWriting application                      : Lavf57.36.100\r\nComment                                  : Last.Chance.Harvey.2008.1080p.BluRay.H264.AAC-RARBG\r\n\r\nVideo\r\nID                                       : 1\r\nFormat                                   : AVC\r\nFormat/Info                              : Advanced Video Codec\r\nFormat profile                           :   \r\nFormat settings, CABAC                   : Yes\r\nFormat settings, ReFrames                : 2 frames\r\nCodec ID                                 : avc1\r\nCodec ID/Info                            : Advanced Video Coding\r\nDuration                                 : 1h 32mn\r\nBit rate                                 : 1 000 Kbps\r\nWidth                                    : 1 920 pixels\r\nHeight                                   : 816 pixels\r\nDisplay aspect ratio                     : 2.35:1\r\nFrame rate mode                          : Constant\r\nFrame rate                               : 23.976 (23976/1000) fps\r\nColor space                              : YUV\r\nChroma subsampling                       : 4:2:0\r\nBit depth                                : 8 bits\r\nScan type                                : Progressive\r\nBits/(Pixel*Frame)                       : 0.027\r\nStream size                              : 662 MiB (88%)\r\nWriting library                          : x264 core 148 r2643\r\nEncoding settings                        : cabac=1 / ref=2 / deblock=1:0:0 / analyse=0x3:0x133 / me=hex / subme=7 / psy=1 / psy_rd=1.00:0.00 / mixed_ref=0 / me_range=16 / chroma_me=1 / trellis=1 / 8x8dct=1 / cqm=0 / deadzone=21,11 / fast_pskip=1 / chroma_qp_offset=-2 / threads=3 / lookahead_threads=1 / sliced_threads=0 / nr=0 / decimate=1 / interlaced=0 / bluray_compat=0 / constrained_intra=0 / bframes=3 / b_pyramid=0 / b_adapt=1 / b_bias=0 / direct=0 / weightb=1 / open_gop=0 / weightp=2 / keyint=239 / keyint_min=23 / scenecut=40 / intra_refresh=0 / rc_lookahead=40 / rc=2pass / mbtree=1 / bitrate=1000 / ratetol=1.0 / qcomp=0.60 / qpmin=10 / qpmax=69 / qpstep=4 / cplxblur=20.0 / qblur=0.5 / vbv_maxrate=2400 / vbv_bufsize=24000 / nal_hrd=none / filler=0 / ip_ratio=1.40 / aq=3:1.00\r\nEncoded date                             : UTC 2016-05-27 04:32:57\r\nTagged date                              : UTC 2016-05-27 04:32:57\r\nMenus                                    : 3\r\n\r\nAudio\r\nID                                       : 2\r\nFormat                                   : AAC\r\nFormat/Info                              : Advanced Audio Codec\r\nFormat profile                           : LC\r\nCodec ID                                 : 40\r\nDuration                                 : 1h 32mn\r\nBit rate mode                            : Constant\r\nBit rate                                 : 128 Kbps\r\nChannel(s)                               : 2 channels\r\nChannel positions                        : Front: L R\r\nSampling rate                            : 48.0 KHz\r\nFrame rate                               : 46.875 fps (1024 spf)\r\nCompression mode                         : Lossy\r\nStream size                              : 84.8 MiB (11%)\r\nLanguage                                 : English\r\nDefault                                  : Yes\r\nAlternate group                          : 1\r\nEncoded date                             : UTC 2016-05-27 04:32:57\r\nTagged date                              : UTC 2016-05-27 04:32:57\r\nMenus                                    : 3","torrent":{"xt":"urn:btih:6846d5edbfe644c7388390c23c152f9381dcec9e","amp;dn":"Last+Chance+Harvey+2008+720p+BDRip+x264-pong","amp;tr":["udp%3A%2F%2Ftracker.leechers-paradise.org%3A6969","udp%3A%2F%2Fzer0day.ch%3A1337","udp%3A%2F%2Fopen.demonii.com%3A1337","udp%3A%2F%2Ftracker.coppersurfer.tk%3A6969","udp%3A%2F%2Fexodus.desync.com%3A6969"],"infoHash":"6846d5edbfe644c7388390c23c152f9381dcec9e","infoHashBuffer":{"type":"Buffer","data":[104,70,213,237,191,230,68,199,56,131,144,194,60,21,47,147,129,220,236,158]},"announce":[],"urlList":[]}}